<?xml version="1.0" encoding="UTF-8"?> <svg xmlns="http://www.w3.org/2000/svg" width="130.165" height="96.316" viewBox="0 0 130.165 96.316"><g id="Group_173" data-name="Group 173" transform="translate(-303.344 -231.829)"><path id="Path_12" data-name="Path 12" d="M409.249,231.829l-18.687,48.526-20.631-48.519h-22.7l9.093,26.173-9.462,22.348-18.69-48.528H303.344l36.487,96.316h11.33l3.244-19.671-6.834.364,6.042-7.68,6.172-9.532,3.709-2.046,7.908-16.325,5.2,4.58-.916,6.622,2.125-2.357-.4-1.613,1.424.609.734-.679,3.184,2.9-2.974,17.754,6.069,27.069h11.166l36.488-96.314Z" transform="translate(0 0)" fill="#94a37b"></path><g id="Group_51" data-name="Group 51" transform="translate(401.032 323.533)"><path id="Path_13" data-name="Path 13" d="M443.785,365.985v-.013a2.292,2.292,0,1,1,4.585-.013v.013a2.292,2.292,0,1,1-4.585.013Zm4.323-.013v-.013a2.031,2.031,0,1,0-4.061.013v.013a2.018,2.018,0,0,0,2.029,2.045A2.039,2.039,0,0,0,448.108,365.973Zm-2.927-1.212h1.055c.514,0,.9.248.9.737a.7.7,0,0,1-.538.711l.619.883h-.541l-.554-.8h-.488v.8h-.448Zm1.015,1.157c.3,0,.474-.155.474-.38,0-.251-.173-.382-.474-.382h-.567v.762Z" transform="translate(-443.785 -363.666)" fill="#94a37b"></path></g></g></svg> 